<svg width="425" height="255" viewBox="0 0 425 255" fill="none" xmlns="http://www.w3.org/2000/svg">
<g clip-path="url(#clip0_463_3796)">
<path d="M71.2944 242.732C70.9539 242.748 70.617 242.658 70.329 242.476C70.0411 242.294 69.8162 242.027 69.6847 241.713C69.5532 241.399 69.5216 241.051 69.5941 240.718C69.6665 240.385 69.8396 240.083 70.0898 239.851L70.2037 239.399C70.1887 239.362 70.1737 239.326 70.1585 239.29C69.8155 238.48 69.2409 237.789 68.5067 237.305C67.7725 236.82 66.9115 236.564 66.0319 236.567C65.1523 236.57 64.2932 236.833 63.5627 237.323C62.8321 237.813 62.2626 238.508 61.9257 239.321C60.5792 242.564 58.8648 245.812 58.4427 249.241C58.2568 250.757 58.3352 252.293 58.6745 253.782C55.5119 246.883 53.8696 239.385 53.8591 231.796C53.8584 229.892 53.9642 227.989 54.176 226.096C54.351 224.545 54.5939 223.004 54.9045 221.475C56.5996 213.176 60.239 205.398 65.5239 198.779C68.0817 197.383 70.1503 195.237 71.4509 192.63C71.922 191.692 72.255 190.692 72.4395 189.659C72.151 189.697 71.3515 185.302 71.5692 185.033C71.1671 184.423 70.4473 184.119 70.0082 183.524C67.824 180.563 64.8148 181.08 63.2439 185.104C59.888 186.797 59.8555 189.606 61.9147 192.308C63.2247 194.027 63.4048 196.352 64.5542 198.192C64.4359 198.344 64.3129 198.49 64.1947 198.642C62.0329 201.421 60.1488 204.406 58.5694 207.554C58.9535 204.028 58.495 200.461 57.2318 197.147C55.9514 194.058 53.5517 191.457 51.4384 188.787C48.9 185.58 43.6949 186.979 43.2477 191.045C43.2433 191.084 43.2391 191.124 43.235 191.163C43.5489 191.34 43.8561 191.528 44.1568 191.727C44.5345 191.979 44.8271 192.34 44.9964 192.761C45.1656 193.183 45.2037 193.646 45.1054 194.089C45.0072 194.533 44.7772 194.936 44.4458 195.247C44.1143 195.557 43.6968 195.76 43.2478 195.83L43.2019 195.837C43.3137 196.968 43.5114 198.089 43.7931 199.19C41.0821 209.675 46.9351 213.493 55.2924 213.665C55.4768 213.76 55.6566 213.854 55.8411 213.944C54.2542 218.441 53.2589 223.126 52.88 227.879C52.6655 230.684 52.6782 233.501 52.9178 236.304L52.9036 236.205C52.2981 233.088 50.6357 230.276 48.197 228.244C44.575 225.268 39.4578 224.173 35.5503 221.781C35.1351 221.514 34.6522 221.372 34.1587 221.371C33.6652 221.37 33.1817 221.51 32.7651 221.774C32.3485 222.039 32.0163 222.417 31.8077 222.864C31.599 223.311 31.5225 223.809 31.5874 224.298C31.5926 224.333 31.5979 224.368 31.6033 224.403C32.1858 224.64 32.753 224.913 33.3015 225.221C33.6154 225.398 33.9226 225.586 34.2233 225.785C34.6009 226.037 34.8936 226.398 35.0629 226.819C35.2321 227.241 35.2701 227.703 35.1719 228.147C35.0736 228.59 34.8437 228.994 34.5123 229.304C34.1808 229.615 33.7633 229.818 33.3143 229.887L33.2683 229.894C33.2352 229.899 33.2069 229.904 33.1738 229.909C34.1691 232.285 35.5659 234.472 37.3033 236.375C38.9984 245.527 46.2791 246.396 54.0673 243.73H54.072C54.9265 247.444 56.1646 251.058 57.7663 254.515H70.9637C71.011 254.369 71.0536 254.217 71.0962 254.071C69.8746 254.147 68.6482 254.074 67.4444 253.853C68.4235 252.652 69.4027 251.441 70.3819 250.239C70.4037 250.217 70.4243 250.193 70.4434 250.168C70.9401 249.553 71.4415 248.943 71.9381 248.328L71.9384 248.327C71.9649 246.443 71.7481 244.562 71.2944 242.732Z" fill="#F2F2F2"/>
<path d="M346.943 242.732C347.283 242.748 347.62 242.658 347.908 242.476C348.196 242.294 348.421 242.027 348.553 241.713C348.684 241.399 348.716 241.051 348.643 240.718C348.571 240.385 348.398 240.083 348.147 239.851L348.034 239.399C348.049 239.362 348.064 239.326 348.079 239.29C348.422 238.48 348.996 237.789 349.731 237.305C350.465 236.82 351.326 236.564 352.205 236.567C353.085 236.57 353.944 236.833 354.675 237.323C355.405 237.813 355.975 238.508 356.312 239.321C357.658 242.564 359.373 245.812 359.795 249.241C359.981 250.757 359.902 252.293 359.563 253.782C362.725 246.883 364.368 239.385 364.378 231.796C364.379 229.892 364.273 227.989 364.061 226.096C363.886 224.545 363.644 223.004 363.333 221.475C361.638 213.176 357.998 205.398 352.714 198.779C350.156 197.383 348.087 195.237 346.786 192.63C346.315 191.692 345.982 190.692 345.798 189.659C346.086 189.697 346.886 185.302 346.668 185.033C347.07 184.423 347.79 184.119 348.229 183.524C350.413 180.563 353.423 181.08 354.993 185.104C358.349 186.797 358.382 189.606 356.323 192.308C355.013 194.027 354.833 196.352 353.683 198.192C353.801 198.344 353.924 198.49 354.043 198.642C356.204 201.421 358.089 204.406 359.668 207.554C359.284 204.028 359.742 200.461 361.006 197.147C362.286 194.058 364.686 191.457 366.799 188.787C369.337 185.58 374.542 186.979 374.99 191.045C374.994 191.084 374.998 191.124 375.002 191.163C374.688 191.34 374.381 191.528 374.081 191.727C373.703 191.979 373.41 192.34 373.241 192.761C373.072 193.183 373.034 193.646 373.132 194.089C373.23 194.533 373.46 194.936 373.792 195.247C374.123 195.557 374.541 195.76 374.99 195.83L375.035 195.837C374.924 196.968 374.726 198.089 374.444 199.19C377.155 209.675 371.302 213.493 362.945 213.665C362.761 213.76 362.581 213.854 362.396 213.944C363.983 218.441 364.979 223.126 365.357 227.879C365.572 230.684 365.559 233.501 365.32 236.304L365.334 236.205C365.939 233.088 367.602 230.276 370.04 228.244C373.662 225.268 378.78 224.173 382.687 221.781C383.102 221.514 383.585 221.372 384.079 221.371C384.572 221.37 385.056 221.51 385.472 221.774C385.889 222.039 386.221 222.417 386.43 222.864C386.638 223.311 386.715 223.809 386.65 224.298C386.645 224.333 386.639 224.368 386.634 224.403C386.052 224.64 385.484 224.913 384.936 225.221C384.622 225.398 384.315 225.586 384.014 225.785C383.636 226.037 383.344 226.398 383.175 226.819C383.005 227.241 382.967 227.703 383.066 228.147C383.164 228.59 383.394 228.994 383.725 229.304C384.057 229.615 384.474 229.818 384.923 229.887L384.969 229.894C385.002 229.899 385.031 229.904 385.064 229.909C384.068 232.285 382.671 234.472 380.934 236.375C379.239 245.527 371.958 246.396 364.17 243.73H364.165C363.311 247.444 362.073 251.058 360.471 254.515H347.274C347.226 254.369 347.184 254.217 347.141 254.071C348.363 254.147 349.589 254.074 350.793 253.853C349.814 252.652 348.835 251.441 347.856 250.239C347.834 250.217 347.813 250.193 347.794 250.168C347.297 249.553 346.796 248.943 346.299 248.328L346.299 248.327C346.273 246.443 346.489 244.562 346.943 242.732Z" fill="#F2F2F2"/>
<path d="M86.4736 254.22H107.77C111.412 241.956 107.789 212.972 112.59 201.125C121.801 178.411 133.568 154.444 155.531 143.353C164.908 138.618 175.133 136.768 185.574 136.869C199.999 137.005 214.829 140.878 228.406 146.009C233.96 148.104 239.463 150.407 244.945 152.76C265.597 161.634 286.024 171.3 308.233 173.913C336.336 177.216 369.378 164.643 377.054 137.56C382.912 116.825 372.361 95.2978 361.297 76.7794C350.232 58.2611 337.864 38.4472 339.885 17.0068C339.892 16.9348 339.899 16.8556 339.914 16.7837C340.674 9.08269 345.272 3.5482 351.695 0H323.729C323.36 20.001 334.932 37.6555 345.344 55.0871C356.409 73.5983 366.959 95.1322 361.101 115.867C353.426 142.943 289.867 111.205 261.764 107.894C253.828 106.966 266.435 110.269 258.868 107.894C246.999 104.173 245.684 138.301 234.134 133.292C226.943 130.168 219.746 127.066 212.454 124.31C209.434 123.165 206.35 122.093 203.229 121.1C203.221 121.1 203.221 121.1 203.214 121.092C182.258 114.457 159.34 111.873 139.977 121.467C139.846 121.531 139.709 121.596 139.578 121.661C117.616 132.745 105.849 156.711 96.638 179.426C89.0275 198.203 90.2246 234.413 86.4736 254.22Z" fill="#F2F2F2"/>
<path d="M204.958 253.591C258.978 253.591 302.77 209.799 302.77 155.779C302.77 101.759 258.978 57.9668 204.958 57.9668C150.938 57.9668 107.146 101.759 107.146 155.779C107.146 209.799 150.938 253.591 204.958 253.591Z" fill="white"/>
<path d="M204.678 254.219C107.903 256.443 105.781 210.466 105.781 155.779C105.781 101.093 150.272 56.6025 204.958 56.6025C259.644 56.6025 304.135 101.093 304.135 155.779C304.135 210.466 259.365 254.219 204.678 254.219ZM204.958 59.3315C151.776 59.3315 109.406 102.605 108.51 155.779C107.677 205.237 160.218 266.954 204.958 252.227C228.951 225.803 296.784 197.343 301.406 155.779C307.282 102.923 258.14 59.3315 204.958 59.3315Z" fill="#3F3D56"/>
<path d="M191.614 206.686C189.925 206.686 188.26 206.293 186.749 205.537C185.238 204.782 183.924 203.685 182.911 202.333L156.226 166.753C155.368 165.61 154.744 164.309 154.389 162.925C154.034 161.54 153.955 160.1 154.157 158.685C154.358 157.27 154.837 155.909 155.565 154.679C156.293 153.449 157.256 152.374 158.4 151.517C159.543 150.659 160.844 150.036 162.229 149.681C163.614 149.327 165.054 149.248 166.469 149.451C167.884 149.653 169.245 150.133 170.475 150.861C171.704 151.59 172.778 152.554 173.635 153.698L191.093 176.973L235.932 109.716C237.533 107.317 240.022 105.651 242.851 105.086C245.679 104.521 248.617 105.103 251.017 106.703C253.417 108.303 255.084 110.791 255.65 113.619C256.217 116.448 255.637 119.386 254.038 121.787L200.668 201.841C199.703 203.289 198.405 204.484 196.882 205.326C195.359 206.169 193.657 206.634 191.917 206.683C191.816 206.684 191.715 206.686 191.614 206.686Z" fill="#F2F2F2"/>
<path d="M3.11822e-06 254.295C-0.000272799 254.388 0.0177649 254.48 0.0530733 254.565C0.0883816 254.651 0.140267 254.729 0.205744 254.794C0.27122 254.86 0.34899 254.911 0.434591 254.947C0.520192 254.982 0.611936 255 0.704531 255H424.157C424.344 255 424.523 254.926 424.655 254.793C424.787 254.661 424.861 254.482 424.861 254.295C424.861 254.108 424.787 253.929 424.655 253.797C424.523 253.665 424.344 253.591 424.157 253.591H0.704531C0.611937 253.591 0.5202 253.609 0.4346 253.644C0.349001 253.679 0.271229 253.731 0.205753 253.797C0.140277 253.862 0.0883918 253.94 0.0530823 254.025C0.0177728 254.111 -0.000269656 254.203 3.11822e-06 254.295Z" fill="#CCCCCC"/>
<path d="M267.419 247.39H261.692L258.967 225.298L267.42 225.298L267.419 247.39Z" fill="#FFB6B6"/>
<path d="M267.621 253.364L250.009 253.364V253.141C250.009 251.323 250.731 249.579 252.017 248.294C253.302 247.008 255.046 246.286 256.864 246.286L260.081 243.845L266.084 246.286L267.621 246.286L267.621 253.364Z" fill="#2F2E41"/>
<path d="M242.519 220.01L237.229 222.204L226.249 202.842L234.058 199.604L242.519 220.01Z" fill="#FFB6B6"/>
<path d="M244.994 225.452L228.725 232.199L228.64 231.993C227.944 230.313 227.943 228.426 228.638 226.746C229.333 225.066 230.667 223.731 232.346 223.035L234.383 219.548L240.863 219.503L242.283 218.914L244.994 225.452Z" fill="#2F2E41"/>
<path d="M273.967 121.721L233.322 125.968L227.885 144.28L209.056 174.539C209.056 174.539 222.194 196.653 220.961 196.412C219.727 196.171 222.193 202.199 223.92 201.849C225.647 201.499 227.443 205.429 226.249 206.128C225.055 206.827 229.845 212.736 229.845 212.736L237.167 206.164C238.724 194.417 236.843 183.963 230.139 175.32L251.116 152.674L255.093 151.024L258.25 235.056L269.929 235.248C273.151 218.672 274.77 203.752 272.251 193.109C272.251 193.109 272.613 161.136 273.994 161.485C275.375 161.835 274.204 157.67 274.204 157.67C274.204 157.67 272.995 154.122 274.481 152.651C275.967 151.179 275.039 142.523 275.039 142.523C277.495 134.332 276.756 127.569 273.967 121.721Z" fill="#2F2E41"/>
<path d="M242.715 54.1435L253.952 51.2318L259.197 43.9976L271.654 45.5289L274.305 55.3964L283.173 60.544C283.173 60.544 278.272 112.386 279.438 115.233C280.604 118.08 284.784 117.845 281.214 121.514C277.644 125.184 277.171 123.706 277.999 127.701C278.828 131.696 284.867 135.924 277.999 135.882C271.132 135.84 229.691 135.248 230.875 130.512C232.059 125.776 232.041 126.978 233.826 124.009C235.611 121.04 236.813 122.699 236.212 118.317C235.611 113.936 236.203 110.976 236.203 108.608C236.203 106.24 238.187 84.7212 238.187 84.7212L242.715 54.1435Z" fill="#E6E6E6"/>
<path d="M265.394 42.6601C272.685 42.6601 278.594 36.7502 278.594 29.46C278.594 22.1697 272.685 16.2598 265.394 16.2598C258.104 16.2598 252.194 22.1697 252.194 29.46C252.194 36.7502 258.104 42.6601 265.394 42.6601Z" fill="#FFB6B6"/>
<path d="M251.562 21.4712C252.721 22.4078 252.456 26.963 253.748 26.2205C255.039 25.4781 255.308 24.1485 256.795 24.1345C258.008 24.2015 259.151 24.719 260.002 25.5856C260.16 25.7287 260.311 25.8787 260.457 26.027C260.591 25.9801 260.723 25.9376 260.862 25.9027C261.905 25.6481 263.006 25.8031 263.938 26.3359C263.077 26.3973 262.257 26.7278 261.595 27.2806C261.879 27.5988 262.167 27.9187 262.47 28.2143C264.998 30.6918 270.181 28.0535 273.667 27.4581C270.764 30.6277 271.336 32.3971 272.058 36.6336L272.061 36.865C272.21 35.888 275.339 35.9367 274.823 37.2331C274.175 38.5138 273.364 39.7054 272.411 40.7784C276.675 37.8247 280.116 33.7534 280.877 28.8354C281.033 27.8014 281.338 26.7464 281.043 25.7382C280.918 25.2284 280.628 24.7744 280.217 24.4472C279.807 24.12 279.299 23.938 278.775 23.9296C279.25 22.421 279.307 20.8118 278.94 19.2733C278.574 17.7348 277.797 16.3243 276.693 15.1918C275.589 14.0594 274.199 13.2473 272.67 12.8419C271.141 12.4365 269.531 12.453 268.011 12.8896C266.624 13.3824 265.272 13.9662 263.962 14.6371C262.64 15.3107 261.144 15.5641 259.674 15.3635C258.758 15.1743 257.83 14.7001 256.933 14.9686C255.893 15.2805 255.446 16.379 255.029 17.4395C255.811 17.7252 256.491 18.2379 256.981 18.9118C256.172 18.6133 255.289 18.5774 254.459 18.8093C254.443 18.812 254.428 18.8161 254.414 18.8215C253.472 20.5091 253.417 20.9229 251.562 21.4712Z" fill="#2F2E41"/>
<path d="M255.915 47.6957C249.154 47.1513 242.981 52.322 240.166 58.4935C237.351 64.6649 237.167 71.6659 237.03 78.4475L236.606 99.5277C236.543 102.647 236.48 105.767 236.325 108.883C236.245 111.915 235.863 114.932 235.186 117.889C233.808 123.315 230.775 128.149 227.787 132.883C235.437 135.196 243.217 137.054 251.087 138.448C255.017 125.737 258.991 112.66 258.025 99.3906C257.514 92.3688 255.625 85.5132 254.908 78.5096C253.891 68.5904 255.238 58.5982 256.584 48.7182" fill="#3F3D56"/>
<path d="M272.327 48.8813C279.024 49.9582 283.793 56.447 285.062 63.1102C286.33 69.7735 284.847 76.618 283.369 83.238C281.838 90.0974 280.307 96.9568 278.776 103.816C278.096 106.861 277.416 109.907 276.827 112.971C276.255 115.947 278.651 119.765 278.679 122.796C278.73 128.393 277.643 133.004 279.421 138.312C271.441 138.741 263.442 138.699 255.467 138.184C254.668 124.903 253.912 111.257 258.001 98.5965C260.166 91.8969 263.628 85.6859 265.989 79.0531C269.332 69.6591 270.396 59.6327 271.435 49.7159" fill="#3F3D56"/>
<path d="M276.791 144.579C276.294 143.712 276.154 142.686 276.403 141.718C276.651 140.75 277.266 139.917 278.119 139.396C278.294 139.293 278.478 139.204 278.667 139.131L277.813 110.055L287.064 107.7L283.536 141.576C283.778 142.385 283.744 143.252 283.441 144.041C283.138 144.829 282.583 145.496 281.861 145.935C281.448 146.182 280.991 146.344 280.515 146.414C280.04 146.483 279.555 146.458 279.089 146.34C278.623 146.223 278.184 146.014 277.799 145.727C277.413 145.44 277.088 145.079 276.842 144.666C276.825 144.638 276.808 144.608 276.791 144.579Z" fill="#FFB6B6"/>
<path d="M276.116 60.4974C276.116 60.4974 282.574 55.0367 288.007 65.9552C293.441 76.8737 290.404 101.817 289.639 103.148C288.874 104.48 288.408 102.625 288.827 106.174C289.167 109.06 287.142 108.699 287.868 109.315C289.784 110.939 284.419 111.124 287.174 112.554C289.93 113.985 277.597 114.253 277.597 114.253C277.597 114.253 276.105 113.188 277.141 109.171C277.723 106.914 279.18 106.089 277.626 105.045C276.072 104.001 279.231 100.773 279.233 100.064C279.236 99.3561 274.308 83.8653 274.308 83.8653L276.116 60.4974Z" fill="#3F3D56"/>
<path d="M222.682 195.004C220.993 195.004 219.327 194.611 217.817 193.855C216.306 193.1 214.992 192.003 213.979 190.651L187.294 155.071C186.436 153.928 185.812 152.627 185.456 151.243C185.101 149.858 185.022 148.418 185.224 147.003C185.426 145.588 185.905 144.227 186.633 142.997C187.361 141.767 188.324 140.693 189.468 139.835C190.611 138.978 191.912 138.354 193.297 137.999C194.681 137.645 196.122 137.567 197.537 137.769C198.952 137.972 200.313 138.451 201.542 139.179C202.772 139.908 203.846 140.872 204.703 142.016L222.161 165.291L266.999 98.034C267.792 96.8452 268.811 95.824 269.998 95.029C271.185 94.2339 272.517 93.6805 273.919 93.4003C275.32 93.12 276.762 93.1185 278.164 93.3958C279.566 93.6731 280.899 94.2238 282.088 95.0163C283.277 95.8089 284.298 96.8279 285.093 98.0151C285.888 99.2023 286.441 100.535 286.722 101.936C287.002 103.337 287.003 104.779 286.726 106.181C286.449 107.583 285.898 108.916 285.106 110.105L231.736 190.159C230.771 191.607 229.472 192.802 227.95 193.644C226.427 194.487 224.724 194.952 222.985 195.001C222.884 195.002 222.783 195.004 222.682 195.004Z" fill="#6C63FF"/>
<path d="M243.024 139.529C243.568 138.691 243.764 137.673 243.57 136.693C243.376 135.713 242.807 134.847 241.984 134.28C241.815 134.167 241.637 134.069 241.452 133.985L243.911 105L234.805 102.138L236.455 136.157C236.169 136.952 236.154 137.819 236.413 138.623C236.672 139.428 237.19 140.124 237.886 140.602C238.285 140.871 238.733 141.059 239.204 141.154C239.675 141.25 240.16 141.252 240.632 141.16C241.104 141.068 241.554 140.884 241.954 140.619C242.355 140.353 242.7 140.011 242.968 139.613C242.987 139.585 243.006 139.557 243.024 139.529Z" fill="#FFB6B6"/>
<path d="M248.353 55.6723C248.353 55.6723 242.207 49.863 236.179 60.4646C230.15 71.0662 231.803 96.1393 232.493 97.5108C233.184 98.8823 233.752 97.0565 233.138 100.576C232.638 103.439 234.68 103.191 233.921 103.765C231.918 105.281 237.265 105.762 234.435 107.039C231.604 108.315 243.904 109.264 243.904 109.264C243.904 109.264 245.452 108.283 244.639 104.214C244.183 101.929 242.774 101.025 244.383 100.068C245.993 99.1114 243.017 95.7138 243.054 95.0065C243.091 94.2992 248.867 79.1044 248.867 79.1044L248.353 55.6723Z" fill="#3F3D56"/>
</g>
<defs>
<clipPath id="clip0_463_3796">
<rect width="424.861" height="255" fill="white"/>
</clipPath>
</defs>
</svg>
