<svg width="332" height="268" viewBox="0 0 332 268" fill="none" xmlns="http://www.w3.org/2000/svg">
<g clip-path="url(#clip0_462_428)">
<path d="M321.234 235.879C329.673 227.935 334.025 216.034 329.491 205.966C322.891 216.097 312.025 224.075 299.428 228.041C294.521 229.586 288.879 230.86 286.21 234.756C284.55 237.18 284.429 240.217 285.177 242.962C285.925 245.707 287.466 248.232 288.991 250.723L289 251.427C300.942 248.389 312.795 243.824 321.234 235.879Z" fill="#F2F2F2"/>
<path d="M329.237 206.02C327.814 214.787 323.158 223.216 316.039 229.57C314.494 231.008 312.741 232.203 310.838 233.117C308.88 233.984 306.746 234.378 304.608 234.268C302.593 234.204 300.541 233.936 298.544 234.298C297.565 234.47 296.63 234.838 295.796 235.38C294.962 235.922 294.246 236.626 293.69 237.451C292.366 239.398 291.926 241.643 291.584 243.851C291.204 246.303 290.854 248.854 289.24 250.963C289.045 251.219 289.512 251.467 289.708 251.212C292.516 247.543 291.576 242.854 293.471 238.897C294.356 237.051 295.886 235.425 298.173 234.867C300.173 234.379 302.289 234.655 304.328 234.735C306.418 234.868 308.512 234.551 310.469 233.806C312.417 232.981 314.22 231.847 315.807 230.447C319.283 227.477 322.252 223.962 324.6 220.04C327.205 215.743 328.965 210.988 329.786 206.03C329.835 205.727 329.286 205.719 329.237 206.02Z" fill="white"/>
<path d="M318.479 227.611C319.928 228.509 321.621 228.933 323.323 228.825C325.025 228.716 326.65 228.08 327.973 227.004C328.224 226.788 327.85 226.44 327.599 226.656C326.369 227.659 324.855 228.252 323.27 228.35C321.686 228.449 320.11 228.048 318.765 227.204C318.482 227.022 318.196 227.43 318.479 227.611Z" fill="white"/>
<path d="M305.624 234.417C305.342 232.886 305.388 231.312 305.758 229.8C306.128 228.287 306.814 226.87 307.772 225.642C307.966 225.386 307.498 225.137 307.304 225.393C306.311 226.673 305.6 228.149 305.218 229.723C304.837 231.298 304.793 232.936 305.091 234.528C305.149 234.831 305.682 234.719 305.624 234.417Z" fill="white"/>
<path d="M326.51 215.615C325.912 215.401 325.378 215.039 324.959 214.561C324.54 214.084 324.25 213.507 324.117 212.886C324.063 212.582 323.53 212.696 323.584 212.997C323.734 213.682 324.055 214.319 324.516 214.847C324.978 215.376 325.565 215.779 326.223 216.021C326.286 216.052 326.357 216.062 326.426 216.047C326.494 216.033 326.556 215.996 326.6 215.942C326.619 215.916 326.631 215.885 326.636 215.853C326.642 215.822 326.64 215.789 326.631 215.758C326.623 215.726 326.608 215.697 326.587 215.673C326.566 215.648 326.539 215.628 326.51 215.615Z" fill="white"/>
<path d="M289.473 194.52C289.5 194.71 289.528 194.9 289.552 195.093C289.907 197.649 290.023 200.233 289.898 202.811C289.892 203.01 289.882 203.212 289.869 203.411C289.472 209.683 287.763 215.801 284.852 221.37C283.668 223.644 282.3 225.818 280.763 227.869C278.622 230.732 276.037 233.689 275.136 236.904C275.038 237.238 274.963 237.577 274.913 237.921L288.01 251.381C288.057 251.399 288.102 251.419 288.149 251.437L288.644 251.995C288.732 251.893 288.822 251.786 288.91 251.684C288.962 251.625 289.011 251.563 289.062 251.504C289.096 251.463 289.129 251.423 289.162 251.388C289.173 251.375 289.184 251.361 289.192 251.35C289.225 251.316 289.251 251.28 289.281 251.248C289.782 250.649 290.279 250.045 290.773 249.437C290.776 249.434 290.776 249.434 290.777 249.428C294.522 244.787 297.854 239.834 300.215 234.599C300.286 234.441 300.361 234.281 300.426 234.118C301.469 231.771 302.294 229.333 302.892 226.836C303.211 225.479 303.451 224.106 303.611 222.722C304.015 219.15 303.769 215.534 302.887 212.049C301.123 205.067 296.809 198.652 289.996 194.809C289.822 194.711 289.651 194.615 289.473 194.52Z" fill="#F2F2F2"/>
<path d="M289.305 194.694C294.245 202.438 296.369 211.604 295.089 220.401C294.857 222.337 294.283 224.217 293.394 225.953C292.404 227.697 290.961 229.141 289.217 230.131C287.564 231.134 285.74 231.993 284.396 233.327C283.735 233.976 283.238 234.773 282.944 235.652C282.65 236.531 282.568 237.467 282.706 238.383C282.998 240.631 284.202 242.653 285.459 244.595C286.855 246.751 288.344 248.971 288.517 251.499C288.538 251.806 289.084 251.76 289.063 251.454C288.762 247.055 284.762 243.803 283.533 239.652C282.959 237.716 283.054 235.617 284.494 233.975C285.753 232.54 287.633 231.653 289.317 230.65C291.038 229.7 292.501 228.343 293.576 226.697C294.563 225.012 295.22 223.153 295.511 221.222C296.226 216.943 296.161 212.57 295.319 208.314C294.361 203.37 292.471 198.653 289.75 194.415C289.58 194.148 289.136 194.428 289.305 194.694Z" fill="white"/>
<path d="M295.679 217.561C299.266 217.528 302.326 215.19 302.839 212.11C302.89 211.807 302.349 211.724 302.299 212.028C301.818 214.913 298.979 217.056 295.626 217.086C295.273 217.09 295.328 217.564 295.679 217.561Z" fill="white"/>
<path d="M290.132 229.719C288.891 228.73 287.864 227.5 287.114 226.102C286.363 224.705 285.904 223.169 285.765 221.589C285.743 221.283 285.197 221.329 285.219 221.635C285.367 223.279 285.849 224.876 286.633 226.329C287.418 227.782 288.489 229.061 289.783 230.087C290.04 230.298 290.387 229.929 290.132 229.719Z" fill="white"/>
<path d="M293.777 203.782C293.115 203.916 292.43 203.903 291.773 203.743C291.116 203.582 290.502 203.279 289.975 202.855C289.722 202.641 289.375 203.01 289.627 203.222C290.21 203.689 290.889 204.023 291.615 204.202C292.34 204.38 293.096 204.399 293.83 204.256C293.976 204.228 294.091 204.136 294.077 203.996C294.064 203.929 294.025 203.869 293.97 203.829C293.914 203.79 293.845 203.772 293.777 203.782Z" fill="white"/>
<path d="M269.616 92.5429C275.817 92.5429 280.845 87.5157 280.845 81.3144C280.845 75.1131 275.817 70.0859 269.616 70.0859C263.415 70.0859 258.388 75.1131 258.388 81.3144C258.388 87.5157 263.415 92.5429 269.616 92.5429Z" fill="#A0616A"/>
<path d="M318.819 133.19C317.241 129.526 315.074 126.145 312.403 123.182C314.664 126.785 315.957 130.912 316.155 135.161C315.336 135.672 314.48 136.12 313.593 136.501C310.927 137.619 308.085 138.257 305.198 138.387C303.642 133.202 300.956 128.426 297.333 124.404C299.944 128.567 301.257 133.414 301.104 138.326C297.884 138.048 294.711 137.367 291.659 136.302C287.076 134.725 282.629 132.371 279.46 128.709C276.03 124.746 274.34 119.516 273.794 114.302C273.248 109.093 273.761 103.834 274.279 98.6207C274.523 96.1361 272.454 93.2767 272.698 90.7921H272.861C273.949 89.3013 275.057 87.7739 275.59 86.0061C276.12 84.2424 275.981 82.1611 274.763 80.7721C274.081 80.0464 273.22 79.5126 272.266 79.2243C272.177 79.1103 272.079 79.0003 271.977 78.8903C270.133 76.9313 267.962 75.3078 265.562 74.0921C267.293 75.3996 268.45 76.8782 268.988 78.4056C267.489 78.0757 265.99 77.7471 264.491 77.4199C263.99 76.8885 263.462 76.3828 262.91 75.9047C262.271 75.3868 261.595 74.9171 260.886 74.4994C261.659 75.1793 262.258 76.0339 262.633 76.9922C260.707 76.5075 258.78 75.7784 257.778 74.1206C256.116 71.3794 258.092 67.681 260.849 66.0435C262.855 64.9104 265.167 64.4364 267.457 64.6886C269.747 64.9408 271.899 65.9063 273.611 67.4488C277.598 64.512 283.276 64.5609 287.712 66.7563C290.64 68.2706 293.163 70.4649 295.068 73.1553C293.963 73.0134 292.85 72.9359 291.736 72.9231C293.305 73.1526 294.798 73.7439 296.099 74.6501C296.674 75.5434 297.201 76.4666 297.679 77.4158C297.993 78.039 298.289 78.6704 298.567 79.3098C300.274 83.1956 301.385 87.334 302.538 91.4234C303.882 96.189 305.324 100.987 307.841 105.252C311.701 111.736 317.789 116.594 324.969 118.917C325.568 124.306 322.937 129.577 318.819 133.19Z" fill="#2F2E41"/>
<path d="M292.762 254.848L288.686 256.745L279.428 241.927L285.444 239.126L292.762 254.848Z" fill="#A0616A"/>
<path d="M298.201 260.908L295.278 262.269L293.471 259.752L293.42 263.134L285.668 266.743C285.296 266.916 284.879 266.965 284.477 266.885C284.075 266.804 283.71 266.597 283.434 266.293C283.158 265.99 282.987 265.607 282.944 265.199C282.902 264.791 282.991 264.381 283.199 264.027L287.399 256.87L286.1 254.08L292.793 251.437L298.201 260.908Z" fill="#2F2E41"/>
<path d="M251.845 259.132H247.349L245.21 241.792H251.845V259.132Z" fill="#A0616A"/>
<path d="M254.218 266.922H250.994L250.418 263.878L248.944 266.922H240.393C239.983 266.922 239.584 266.791 239.254 266.548C238.924 266.305 238.68 265.963 238.558 265.572C238.436 265.181 238.442 264.76 238.576 264.373C238.71 263.985 238.964 263.651 239.301 263.418L246.13 258.702V255.625L253.312 256.053L254.218 266.922Z" fill="#2F2E41"/>
<path d="M272.611 127.736L268.886 139.102L267.655 148.315L247.868 142.206L249.698 121.648L253.814 117.576L272.611 127.736Z" fill="#A0616A"/>
<path d="M83.1833 21.4549C84.2869 19.7961 83.6337 17.4216 81.7244 16.1513C79.815 14.881 77.3725 15.1959 76.2689 16.8547C75.1653 18.5134 75.8185 20.8879 77.7279 22.1583C79.6373 23.4286 82.0797 23.1137 83.1833 21.4549Z" fill="#FD6584"/>
<path d="M123.317 159.664C124.42 158.005 123.767 155.631 121.858 154.36C119.949 153.09 117.506 153.405 116.402 155.064C115.299 156.723 115.952 159.097 117.861 160.367C119.771 161.638 122.213 161.323 123.317 159.664Z" fill="#E6E6E6"/>
<path d="M10.8976 41.1348C12.0012 39.476 11.348 37.1015 9.43859 35.8312C7.52922 34.5609 5.08673 34.8758 3.98313 36.5346C2.87954 38.1934 3.53275 40.5679 5.44212 41.8382C7.35149 43.1085 9.79398 42.7936 10.8976 41.1348Z" fill="#E6E6E6"/>
<path d="M152.59 139.466H16.8538C12.3854 139.461 8.10147 137.684 4.94185 134.524C1.78223 131.365 0.00492182 127.081 -0.000152588 122.612V64.2667C0.00489277 59.7983 1.78219 55.5144 4.94182 52.3548C8.10145 49.1951 12.3854 47.4179 16.8538 47.4128C60.1662 35.4133 105.593 36.5375 152.59 47.4128C157.058 47.4179 161.342 49.1951 164.502 52.3548C167.661 55.5144 169.438 59.7983 169.444 64.2667V122.612C169.438 127.081 167.661 131.365 164.501 134.524C161.342 137.684 157.058 139.461 152.59 139.466Z" fill="#F2F2F2"/>
<path d="M14.4596 124.599C14.4061 124.599 14.3531 124.589 14.3037 124.568C14.2542 124.548 14.2093 124.518 14.1715 124.48C14.1337 124.442 14.1037 124.397 14.0832 124.348C14.0628 124.298 14.0522 124.245 14.0522 124.192V62.6871C14.0522 62.5791 14.0952 62.4755 14.1715 62.3991C14.2479 62.3227 14.3515 62.2798 14.4596 62.2798C14.5676 62.2798 14.6712 62.3227 14.7476 62.3991C14.824 62.4755 14.8669 62.5791 14.8669 62.6871V124.192C14.8669 124.245 14.8564 124.298 14.8359 124.348C14.8154 124.397 14.7854 124.442 14.7476 124.48C14.7098 124.518 14.6649 124.548 14.6155 124.568C14.566 124.589 14.5131 124.599 14.4596 124.599Z" fill="white"/>
<path d="M155.798 124.599C155.852 124.599 155.905 124.589 155.954 124.568C156.004 124.548 156.049 124.518 156.086 124.48C156.124 124.442 156.154 124.397 156.175 124.348C156.195 124.298 156.206 124.245 156.206 124.192V62.6871C156.206 62.5791 156.163 62.4755 156.086 62.3991C156.01 62.3227 155.906 62.2798 155.798 62.2798C155.69 62.2798 155.587 62.3227 155.51 62.3991C155.434 62.4755 155.391 62.5791 155.391 62.6871V124.192C155.391 124.245 155.402 124.298 155.422 124.348C155.442 124.397 155.472 124.442 155.51 124.48C155.548 124.518 155.593 124.548 155.642 124.568C155.692 124.589 155.745 124.599 155.798 124.599Z" fill="white"/>
<path d="M128.915 75.7212H128.914C128.806 75.7208 128.703 75.6776 128.627 75.6009C128.55 75.5243 128.508 75.4205 128.508 75.3125L128.712 12.9931C128.712 12.8853 128.755 12.7821 128.832 12.706C128.908 12.6299 129.011 12.5872 129.119 12.5872H129.121C129.229 12.5875 129.332 12.6308 129.408 12.7074C129.484 12.7841 129.527 12.8878 129.526 12.9959L129.323 75.3153C129.322 75.4231 129.279 75.5263 129.203 75.6024C129.127 75.6784 129.023 75.7212 128.915 75.7212Z" fill="#3F3D56"/>
<path d="M76.779 164.924H76.7776C76.6696 164.923 76.5662 164.88 76.4901 164.804C76.4139 164.727 76.3714 164.623 76.3717 164.515L76.5753 103.825C76.5757 103.717 76.6188 103.614 76.6951 103.538C76.7715 103.462 76.8749 103.419 76.9827 103.419H76.984C77.0921 103.419 77.1955 103.463 77.2716 103.539C77.3478 103.616 77.3903 103.72 77.39 103.828L77.1863 164.518C77.186 164.625 77.1429 164.729 77.0666 164.805C76.9902 164.881 76.8868 164.924 76.779 164.924Z" fill="#3F3D56"/>
<path d="M38.0839 87.1261H38.0825C37.9745 87.1257 37.8711 87.0824 37.7949 87.0058C37.7188 86.9291 37.6762 86.8254 37.6766 86.7174L37.8803 25.2126C37.8807 25.1048 37.9238 25.0016 38.0001 24.9255C38.0764 24.8494 38.1798 24.8067 38.2876 24.8066H38.289C38.397 24.807 38.5005 24.8503 38.5766 24.9269C38.6527 25.0036 38.6953 25.1073 38.6949 25.2153L38.4912 86.7201C38.4908 86.8279 38.4478 86.9311 38.3714 87.0072C38.2951 87.0833 38.1917 87.126 38.0839 87.1261Z" fill="#3F3D56"/>
<path d="M21.2655 103.5C22.0499 99.2651 26.8648 97.3122 30.7662 97.6438C36.3417 98.1179 40.9948 101.789 46.184 103.519C48.6915 104.355 51.3894 104.814 54.0172 104.333C56.0887 103.906 58.0095 102.937 59.5828 101.523C62.5999 98.9447 64.6396 95.4278 67.6591 92.8519C69.2738 91.398 71.3161 90.5063 73.4801 90.3103C76.1443 90.1333 78.7533 91.0361 81.0885 92.2463C85.7276 94.6504 89.5254 98.4757 94.4664 100.331C96.7352 101.206 99.1961 101.46 101.596 101.068C103.991 100.59 106.268 99.6452 108.297 98.2863C112.552 95.5986 116.058 91.869 120.531 89.5118C122.731 88.3527 125.174 87.4661 127.687 87.4487C130.116 87.4517 132.45 88.3864 134.21 90.06C137.598 93.1397 140.269 98.0011 145.443 98.0865C146.522 98.1064 147.584 97.8149 148.502 97.2469C149.169 96.8341 148.556 95.7766 147.885 96.1918C145.776 97.4961 143.236 96.6729 141.314 95.4081C139.266 94.061 137.813 92.002 136.142 90.2477C134.482 88.5049 132.546 87.0372 130.158 86.4934C127.772 86.0221 125.302 86.2285 123.028 87.0892C118.14 88.7921 114.44 92.2976 110.384 95.3473C106.386 98.3529 101.718 100.953 96.5601 99.7017C91.424 98.4553 87.5278 94.5661 83.0858 91.9554C78.7918 89.4318 73.5282 87.8203 68.9044 90.4757C65.4104 92.4821 63.2014 96.0256 60.518 98.9122C59.1939 100.337 57.7173 101.661 55.9286 102.47C53.4433 103.594 50.6345 103.463 48.0458 102.796C42.6456 101.406 38.091 97.7702 32.5921 96.6825C28.5105 95.8751 23.6795 96.8924 21.1883 100.501C20.6375 101.305 20.2623 102.216 20.0872 103.175C19.9448 103.944 21.1223 104.273 21.2655 103.5Z" fill="#3F3D56"/>
<path d="M38.2876 106.168C41.212 106.168 43.5827 103.798 43.5827 100.873C43.5827 97.9488 41.212 95.5781 38.2876 95.5781C35.3632 95.5781 32.9925 97.9488 32.9925 100.873C32.9925 103.798 35.3632 106.168 38.2876 106.168Z" fill="#6C63FF"/>
<path d="M76.3717 94.9672C79.2961 94.9672 81.6668 92.5965 81.6668 89.6721C81.6668 86.7477 79.2961 84.377 76.3717 84.377C73.4473 84.377 71.0766 86.7477 71.0766 89.6721C71.0766 92.5965 73.4473 94.9672 76.3717 94.9672Z" fill="#6C63FF"/>
<path d="M128.508 91.3012C131.433 91.3012 133.803 88.9305 133.803 86.0061C133.803 83.0816 131.433 80.7109 128.508 80.7109C125.584 80.7109 123.213 83.0816 123.213 86.0061C123.213 88.9305 125.584 91.3012 128.508 91.3012Z" fill="#6C63FF"/>
<path d="M83.0867 180.435H71.4722C70.8334 180.435 70.2162 180.204 69.734 179.785C69.2517 179.366 68.9368 178.787 68.8471 178.154C68.13 172.877 68.13 167.527 68.8471 162.25C68.9355 161.626 69.2428 161.054 69.7142 160.637C70.1855 160.219 70.7902 159.982 71.4199 159.969C75.2019 157.938 79.1434 157.938 83.1366 159.969C83.5177 159.976 83.8927 160.065 84.2357 160.231C84.5786 160.397 84.8812 160.636 85.1223 160.931C85.3749 161.24 85.5556 161.6 85.6514 161.987C85.7472 162.374 85.7556 162.777 85.676 163.168C84.743 167.811 84.743 172.593 85.676 177.236C85.7556 177.627 85.7472 178.03 85.6514 178.417C85.5556 178.804 85.3749 179.164 85.1223 179.473C84.8758 179.774 84.5652 180.017 84.2131 180.184C83.861 180.35 83.4762 180.436 83.0867 180.435Z" fill="#6C63FF"/>
<path d="M136.445 21.6943H124.831C124.192 21.6938 123.575 21.4629 123.092 21.0439C122.61 20.6249 122.295 20.046 122.206 19.4135C121.488 14.1362 121.488 8.78617 122.206 3.50888C122.294 2.88397 122.603 2.31113 123.076 1.89319C123.549 1.47524 124.155 1.23956 124.786 1.22846C128.44 -0.409555 132.376 -0.409355 136.485 1.22827C136.868 1.23334 137.245 1.32213 137.59 1.48839C137.934 1.65465 138.239 1.89435 138.481 2.19067C138.733 2.49893 138.914 2.85959 139.01 3.24644C139.106 3.6333 139.114 4.03663 139.034 4.42713C138.102 9.07011 138.102 13.8523 139.034 18.4953C139.114 18.8858 139.106 19.2891 139.01 19.676C138.914 20.0628 138.733 20.4235 138.481 20.7317C138.234 21.0333 137.924 21.2761 137.572 21.4427C137.219 21.6092 136.835 21.6951 136.445 21.6943Z" fill="#6C63FF"/>
<path d="M43.8716 32.2721H32.2571C31.8677 32.2729 31.4829 32.187 31.1308 32.0204C30.7787 31.8539 30.4681 31.6111 30.2216 31.3095C29.969 31.0013 29.7882 30.6406 29.6924 30.2537C29.5967 29.8669 29.5883 29.4636 29.6679 29.0731C30.6008 24.4301 30.6008 19.6479 29.6679 15.0049C29.5883 14.6144 29.5967 14.211 29.6924 13.8241C29.7882 13.4373 29.969 13.0766 30.2216 12.7683C30.4629 12.473 30.7658 12.234 31.109 12.0679C31.4522 11.9017 31.8275 11.8124 32.2088 11.8063C35.7398 10.077 39.677 10.077 43.9124 11.8063C44.5441 11.8164 45.1515 12.0516 45.6252 12.4697C46.099 12.8877 46.4079 13.4611 46.4965 14.0867C47.2137 19.3639 47.2137 24.7139 46.4965 29.9911C46.4069 30.6236 46.0921 31.2026 45.6099 31.6216C45.1277 32.0407 44.5105 32.2717 43.8716 32.2721Z" fill="#CCCCCC"/>
<path d="M135.229 7.29202H125.453C125.291 7.29202 125.136 7.22764 125.021 7.11306C124.907 6.99848 124.842 6.84308 124.842 6.68104C124.842 6.519 124.907 6.3636 125.021 6.24902C125.136 6.13444 125.291 6.07007 125.453 6.07007H135.229C135.391 6.07007 135.546 6.13444 135.661 6.24902C135.776 6.3636 135.84 6.519 135.84 6.68104C135.84 6.84308 135.776 6.99848 135.661 7.11306C135.546 7.22764 135.391 7.29202 135.229 7.29202Z" fill="white"/>
<path d="M135.229 12.18H125.453C125.291 12.18 125.136 12.1156 125.021 12.001C124.907 11.8864 124.842 11.731 124.842 11.569C124.842 11.4069 124.907 11.2515 125.021 11.137C125.136 11.0224 125.291 10.958 125.453 10.958H135.229C135.391 10.958 135.546 11.0224 135.661 11.137C135.776 11.2515 135.84 11.4069 135.84 11.569C135.84 11.731 135.776 11.8864 135.661 12.001C135.546 12.1156 135.391 12.18 135.229 12.18Z" fill="white"/>
<path d="M135.229 17.0677H125.453C125.291 17.0677 125.136 17.0033 125.021 16.8887C124.907 16.7741 124.842 16.6187 124.842 16.4567C124.842 16.2946 124.907 16.1392 125.021 16.0246C125.136 15.9101 125.291 15.8457 125.453 15.8457H135.229C135.391 15.8457 135.546 15.9101 135.661 16.0246C135.776 16.1392 135.84 16.2946 135.84 16.4567C135.84 16.6187 135.776 16.7741 135.661 16.8887C135.546 17.0033 135.391 17.0677 135.229 17.0677Z" fill="white"/>
<path d="M44.0493 17.0677H34.2737C34.1117 17.0677 33.9563 17.0033 33.8417 16.8887C33.7271 16.7741 33.6627 16.6187 33.6627 16.4567C33.6627 16.2946 33.7271 16.1392 33.8417 16.0246C33.9563 15.9101 34.1117 15.8457 34.2737 15.8457H44.0493C44.2113 15.8457 44.3667 15.9101 44.4813 16.0246C44.5959 16.1392 44.6603 16.2946 44.6603 16.4567C44.6603 16.6187 44.5959 16.7741 44.4813 16.8887C44.3667 17.0033 44.2113 17.0677 44.0493 17.0677Z" fill="white"/>
<path d="M44.0493 21.9553H34.2737C34.1117 21.9553 33.9563 21.891 33.8417 21.7764C33.7271 21.6618 33.6627 21.5064 33.6627 21.3444C33.6627 21.1823 33.7271 21.0269 33.8417 20.9123C33.9563 20.7978 34.1117 20.7334 34.2737 20.7334H44.0493C44.2113 20.7334 44.3667 20.7978 44.4813 20.9123C44.5959 21.0269 44.6603 21.1823 44.6603 21.3444C44.6603 21.5064 44.5959 21.6618 44.4813 21.7764C44.3667 21.891 44.2113 21.9553 44.0493 21.9553Z" fill="white"/>
<path d="M44.0493 26.8433H34.2737C34.1117 26.8433 33.9563 26.7789 33.8417 26.6643C33.7271 26.5498 33.6627 26.3944 33.6627 26.2323C33.6627 26.0703 33.7271 25.9149 33.8417 25.8003C33.9563 25.6857 34.1117 25.6213 34.2737 25.6213H44.0493C44.2113 25.6213 44.3667 25.6857 44.4813 25.8003C44.5959 25.9149 44.6603 26.0703 44.6603 26.2323C44.6603 26.3944 44.5959 26.5498 44.4813 26.6643C44.3667 26.7789 44.2113 26.8433 44.0493 26.8433Z" fill="white"/>
<path d="M82.337 164.924H72.5614C72.3994 164.924 72.244 164.859 72.1294 164.745C72.0148 164.63 71.9505 164.475 71.9505 164.313C71.9505 164.151 72.0148 163.995 72.1294 163.881C72.244 163.766 72.3994 163.702 72.5614 163.702H82.337C82.4991 163.702 82.6545 163.766 82.7691 163.881C82.8836 163.995 82.948 164.151 82.948 164.313C82.948 164.475 82.8836 164.63 82.7691 164.745C82.6545 164.859 82.4991 164.924 82.337 164.924Z" fill="white"/>
<path d="M82.337 169.811H72.5614C72.3994 169.811 72.244 169.747 72.1294 169.632C72.0148 169.518 71.9505 169.362 71.9505 169.2C71.9505 169.038 72.0148 168.883 72.1294 168.768C72.244 168.654 72.3994 168.589 72.5614 168.589H82.337C82.4991 168.589 82.6545 168.654 82.7691 168.768C82.8836 168.883 82.948 169.038 82.948 169.2C82.948 169.362 82.8836 169.518 82.7691 169.632C82.6545 169.747 82.4991 169.811 82.337 169.811Z" fill="white"/>
<path d="M82.337 174.699H72.5614C72.3994 174.699 72.244 174.635 72.1294 174.52C72.0148 174.405 71.9505 174.25 71.9505 174.088C71.9505 173.926 72.0148 173.771 72.1294 173.656C72.244 173.541 72.3994 173.477 72.5614 173.477H82.337C82.4991 173.477 82.6545 173.541 82.7691 173.656C82.8836 173.771 82.948 173.926 82.948 174.088C82.948 174.25 82.8836 174.405 82.7691 174.52C82.6545 174.635 82.4991 174.699 82.337 174.699Z" fill="white"/>
<path d="M274.54 146.476L247.339 140.323L237.262 163.701L234.41 211.357L241.84 250.053H256.726L249.888 211.357L251.518 182.031L259.151 217.25L279.377 246.469L288.709 238.409L272.698 210.95C272.698 210.95 279.401 161.655 272.291 153.111L274.54 146.476Z" fill="#2F2E41"/>
<path d="M258.309 100.052L260.488 99.2335L263.236 94.79L273.025 95.5899L275.404 100.354L281.135 104.731L278.629 117.932L274.735 133.967L248.666 130.709L248.694 118.638C248.694 118.638 243.983 109.101 251.593 105.528L258.309 100.052Z" fill="#E6E6E6"/>
<path d="M218.127 141.923C218.633 142.126 219.178 142.216 219.722 142.186C220.267 142.156 220.798 142.006 221.278 141.749C221.759 141.491 222.177 141.132 222.504 140.695C222.83 140.258 223.057 139.755 223.168 139.221L252.234 121.634L246.922 115.504L220.021 134.719C219.112 134.592 218.188 134.803 217.424 135.312C216.659 135.82 216.108 136.592 215.875 137.48C215.641 138.368 215.742 139.31 216.157 140.129C216.572 140.948 217.273 141.586 218.127 141.923Z" fill="#A0616A"/>
<path d="M261.92 113.294C261.92 113.294 263.309 114.691 259.823 116.989C257.033 118.829 244.587 127.921 240.175 129.359C240.23 130.007 240.068 130.655 239.715 131.201C239.361 131.747 238.836 132.159 238.222 132.374L234.227 123.595C235.092 121.589 236.475 122.053 237.203 122.508L242.027 118.88L253.874 107.05L260.933 112.265L261.92 113.294Z" fill="#E6E6E6"/>
<path d="M217.374 143.346H205.76C205.37 143.347 204.986 143.261 204.633 143.094C204.281 142.928 203.971 142.685 203.724 142.383C203.472 142.075 203.291 141.714 203.195 141.327C203.099 140.941 203.091 140.537 203.171 140.147C204.104 135.504 204.104 130.722 203.171 126.079C203.091 125.688 203.099 125.285 203.195 124.898C203.291 124.511 203.472 124.15 203.724 123.842C203.966 123.547 204.268 123.308 204.612 123.142C204.955 122.975 205.33 122.886 205.712 122.88C209.243 121.151 213.18 121.151 217.415 122.88C218.047 122.89 218.654 123.125 219.128 123.543C219.602 123.961 219.911 124.535 219.999 125.16C220.716 130.438 220.716 135.788 219.999 141.065C219.91 141.697 219.595 142.276 219.113 142.695C218.63 143.114 218.013 143.345 217.374 143.346Z" fill="#6C63FF"/>
<path d="M217.552 128.142H207.776C207.614 128.142 207.459 128.078 207.344 127.963C207.23 127.848 207.165 127.693 207.165 127.531C207.165 127.369 207.23 127.213 207.344 127.099C207.459 126.984 207.614 126.92 207.776 126.92H217.552C217.714 126.92 217.869 126.984 217.984 127.099C218.099 127.213 218.163 127.369 218.163 127.531C218.163 127.693 218.099 127.848 217.984 127.963C217.869 128.078 217.714 128.142 217.552 128.142Z" fill="white"/>
<path d="M217.552 133.03H207.776C207.614 133.03 207.459 132.965 207.344 132.851C207.23 132.736 207.165 132.581 207.165 132.419C207.165 132.257 207.23 132.101 207.344 131.987C207.459 131.872 207.614 131.808 207.776 131.808H217.552C217.714 131.808 217.869 131.872 217.984 131.987C218.099 132.101 218.163 132.257 218.163 132.419C218.163 132.581 218.099 132.736 217.984 132.851C217.869 132.965 217.714 133.03 217.552 133.03Z" fill="white"/>
<path d="M217.552 137.917H207.776C207.614 137.917 207.459 137.853 207.344 137.738C207.23 137.624 207.165 137.468 207.165 137.306C207.165 137.144 207.23 136.989 207.344 136.874C207.459 136.76 207.614 136.695 207.776 136.695H217.552C217.714 136.695 217.869 136.76 217.984 136.874C218.099 136.989 218.163 137.144 218.163 137.306C218.163 137.468 218.099 137.624 217.984 137.738C217.869 137.853 217.714 137.917 217.552 137.917Z" fill="white"/>
<path d="M273.584 178.375H261.97C261.58 178.376 261.195 178.29 260.843 178.123C260.491 177.957 260.18 177.714 259.934 177.413C259.681 177.104 259.501 176.744 259.405 176.357C259.309 175.97 259.301 175.567 259.38 175.176C260.313 170.533 260.313 165.751 259.38 161.108C259.301 160.717 259.309 160.314 259.405 159.927C259.501 159.54 259.681 159.18 259.934 158.871C260.175 158.576 260.478 158.337 260.821 158.171C261.165 158.005 261.54 157.915 261.921 157.909C265.452 156.18 269.389 156.18 273.625 157.909C274.257 157.919 274.864 158.155 275.338 158.573C275.811 158.991 276.12 159.564 276.209 160.19C276.926 165.467 276.926 170.817 276.209 176.094C276.119 176.727 275.804 177.306 275.322 177.725C274.84 178.144 274.223 178.375 273.584 178.375Z" fill="#CCCCCC"/>
<path d="M273.762 163.171H263.986C263.824 163.171 263.669 163.106 263.554 162.992C263.439 162.877 263.375 162.722 263.375 162.56C263.375 162.398 263.439 162.242 263.554 162.128C263.669 162.013 263.824 161.949 263.986 161.949H273.762C273.924 161.949 274.079 162.013 274.194 162.128C274.308 162.242 274.373 162.398 274.373 162.56C274.373 162.722 274.308 162.877 274.194 162.992C274.079 163.106 273.924 163.171 273.762 163.171Z" fill="white"/>
<path d="M273.762 168.059H263.986C263.824 168.059 263.669 167.994 263.554 167.88C263.439 167.765 263.375 167.61 263.375 167.448C263.375 167.286 263.439 167.13 263.554 167.016C263.669 166.901 263.824 166.837 263.986 166.837H273.762C273.924 166.837 274.079 166.901 274.194 167.016C274.308 167.13 274.373 167.286 274.373 167.448C274.373 167.61 274.308 167.765 274.194 167.88C274.079 167.994 273.924 168.059 273.762 168.059Z" fill="white"/>
<path d="M273.762 172.947H263.986C263.824 172.947 263.669 172.882 263.554 172.768C263.439 172.653 263.375 172.498 263.375 172.336C263.375 172.174 263.439 172.018 263.554 171.904C263.669 171.789 263.824 171.725 263.986 171.725H273.762C273.924 171.725 274.079 171.789 274.194 171.904C274.308 172.018 274.373 172.174 274.373 172.336C274.373 172.498 274.308 172.653 274.194 172.768C274.079 172.882 273.924 172.947 273.762 172.947Z" fill="white"/>
<path d="M268.428 160.886C268.936 160.688 269.395 160.382 269.772 159.988C270.148 159.593 270.434 159.122 270.609 158.605C270.784 158.089 270.843 157.54 270.783 156.998C270.723 156.456 270.545 155.934 270.261 155.468L279.456 122.763L271.389 121.92L264.887 154.333C264.136 154.862 263.606 155.647 263.395 156.541C263.185 157.435 263.31 158.375 263.747 159.182C264.183 159.99 264.901 160.61 265.764 160.923C266.626 161.237 267.574 161.224 268.428 160.886Z" fill="#A0616A"/>
<path d="M280.817 104.81C280.817 104.81 282.786 104.881 281.812 108.941C281.033 112.191 278.171 132.58 275.934 136.645C276.417 137.08 276.742 137.664 276.857 138.304C276.972 138.944 276.87 139.605 276.569 140.181L267.653 136.503C266.912 134.448 267.486 132.581 268.328 132.416L269.37 126.47L270.905 106.522L279.394 104.734L280.817 104.81Z" fill="#E6E6E6"/>
<path d="M273.539 67.7539C274.889 69.7454 275.761 72.0215 276.087 74.4051C276.414 76.7886 276.185 79.2153 275.421 81.4963" fill="#FD6584"/>
<path d="M321.097 266.852C321.097 266.916 321.085 266.979 321.06 267.038C321.036 267.097 321 267.15 320.955 267.195C320.91 267.24 320.857 267.276 320.798 267.3C320.739 267.324 320.676 267.337 320.612 267.337H206.445C206.382 267.337 206.319 267.324 206.26 267.3C206.201 267.275 206.148 267.24 206.103 267.195C206.058 267.15 206.022 267.096 205.998 267.037C205.973 266.979 205.961 266.916 205.961 266.852C205.961 266.788 205.973 266.725 205.998 266.666C206.022 266.608 206.058 266.554 206.103 266.509C206.148 266.464 206.201 266.428 206.26 266.404C206.319 266.38 206.382 266.367 206.445 266.367H320.612C320.676 266.367 320.739 266.379 320.798 266.404C320.857 266.428 320.91 266.464 320.955 266.509C321 266.554 321.036 266.607 321.06 266.666C321.085 266.725 321.097 266.788 321.097 266.852Z" fill="#CCCCCC"/>
</g>
<defs>
<clipPath id="clip0_462_428">
<rect width="331.316" height="267.337" fill="white"/>
</clipPath>
</defs>
</svg>
