<svg width="71" height="71" viewBox="0 0 71 71" fill="none" xmlns="http://www.w3.org/2000/svg">
<path d="M22.2821 29.6986L45.1024 1C77.5678 5.19298 64.4756 22.819 52.8086 29.6986C61.9069 32.261 74.1572 35.1216 69.4639 54.3907C65.288 71.5353 27.2207 72.7 4.98047 66.7367L52.8086 29.6986H22.2821Z" fill="#013198"/>
<path d="M52.8086 29.6986H22.2821L45.1024 1C77.5678 5.19298 64.4756 22.819 52.8086 29.6986ZM52.8086 29.6986L4.98047 66.7367C27.2207 72.7 65.288 71.5353 69.4639 54.3907C74.1572 35.1216 61.9069 32.261 52.8086 29.6986Z" stroke="black" stroke-width="0.92"/>
<path d="M1.5 38.5039L25.7621 1H45.3507L22.4807 29.7452L54.101 28.6737L4.63219 67.0628L33.1203 37.1994L1.5 38.5039Z" fill="#F7FE5E" stroke="black" stroke-width="0.92"/>
</svg>
