<svg width="180" height="56" viewBox="0 0 180 56" fill="none" xmlns="http://www.w3.org/2000/svg">
<path d="M16.0589 23.7961L32.5953 3C56.121 6.03839 46.6339 18.8109 38.1795 23.7961C44.7725 25.6529 53.6496 27.7258 50.2486 41.6889C47.2226 54.1125 19.6376 54.9565 3.52148 50.6353L38.1795 23.7961H16.0589Z" fill="#013198"/>
<path d="M38.1795 23.7961H16.0589L32.5953 3C56.121 6.03839 46.6339 18.8109 38.1795 23.7961ZM38.1795 23.7961L3.52148 50.6353C19.6376 54.9565 47.2226 54.1125 50.2486 41.6889C53.6496 27.7258 44.7725 25.6529 38.1795 23.7961Z" stroke="black" stroke-width="0.92"/>
<path d="M1 30.1767L18.5812 3H32.7759L16.2034 23.8299L39.1167 23.0534L3.26971 50.8716L23.9132 29.2315L1 30.1767Z" fill="#F7FE5E" stroke="black" stroke-width="0.92"/>
<path d="M81 39.6016C81 40.7604 80.7786 41.8477 80.3359 42.8633C79.8932 43.8789 79.2878 44.7708 78.5195 45.5391C77.7643 46.2943 76.8789 46.8932 75.8633 47.3359C74.8477 47.7786 73.7604 48 72.6016 48H58.5977V19.9922H72.6016C73.7604 19.9922 74.8477 20.2135 75.8633 20.6562C76.8789 21.099 77.7643 21.7044 78.5195 22.4727C79.2878 23.2279 79.8932 24.1133 80.3359 25.1289C80.7786 26.1445 81 27.2318 81 28.3906C81 28.9115 80.9284 29.4453 80.7852 29.9922C80.6419 30.5391 80.4401 31.0664 80.1797 31.5742C79.9193 32.082 79.6068 32.5443 79.2422 32.9609C78.8776 33.3776 78.474 33.7227 78.0312 33.9961C78.487 34.2435 78.8971 34.582 79.2617 35.0117C79.6263 35.4284 79.9388 35.8906 80.1992 36.3984C80.4596 36.9062 80.6549 37.4401 80.7852 38C80.9284 38.5469 81 39.0807 81 39.6016ZM64.2031 42.3945H72.6016C72.9922 42.3945 73.3568 42.3229 73.6953 42.1797C74.0339 42.0365 74.3268 41.8411 74.5742 41.5938C74.8346 41.3333 75.0365 41.0339 75.1797 40.6953C75.3229 40.3568 75.3945 39.9922 75.3945 39.6016C75.3945 39.2109 75.3229 38.8464 75.1797 38.5078C75.0365 38.1693 74.8346 37.8763 74.5742 37.6289C74.3268 37.3685 74.0339 37.1667 73.6953 37.0234C73.3568 36.8802 72.9922 36.8086 72.6016 36.8086H64.2031V42.3945ZM64.2031 31.2031H72.6016C72.9922 31.2031 73.3568 31.1315 73.6953 30.9883C74.0339 30.8451 74.3268 30.6497 74.5742 30.4023C74.8346 30.1419 75.0365 29.8424 75.1797 29.5039C75.3229 29.1523 75.3945 28.7812 75.3945 28.3906C75.3945 28 75.3229 27.6354 75.1797 27.2969C75.0365 26.9583 74.8346 26.6654 74.5742 26.418C74.3268 26.1576 74.0339 25.9557 73.6953 25.8125C73.3568 25.6693 72.9922 25.5977 72.6016 25.5977H64.2031V31.2031ZM90.043 48H84.6719V18.7617H90.043V48ZM100.414 21.3984C100.414 21.8932 100.316 22.3555 100.121 22.7852C99.9388 23.2148 99.6849 23.5924 99.3594 23.918C99.0339 24.2305 98.6497 24.4844 98.207 24.6797C97.7773 24.862 97.3151 24.9531 96.8203 24.9531C96.3255 24.9531 95.8568 24.862 95.4141 24.6797C94.9844 24.4844 94.6068 24.2305 94.2812 23.918C93.9688 23.5924 93.7148 23.2148 93.5195 22.7852C93.3372 22.3555 93.2461 21.8932 93.2461 21.3984C93.2461 20.9167 93.3372 20.4609 93.5195 20.0312C93.7148 19.5885 93.9688 19.2109 94.2812 18.8984C94.6068 18.5729 94.9844 18.319 95.4141 18.1367C95.8568 17.9414 96.3255 17.8438 96.8203 17.8438C97.3151 17.8438 97.7773 17.9414 98.207 18.1367C98.6497 18.319 99.0339 18.5729 99.3594 18.8984C99.6849 19.2109 99.9388 19.5885 100.121 20.0312C100.316 20.4609 100.414 20.9167 100.414 21.3984ZM99.4961 48H94.125V27.082H99.4961V48ZM122.836 48H116.312L112.152 41.5938L107.953 48H101.43L109.066 37.2773L101.43 26.9648H107.953L112.152 32.9609L116.312 26.9648H122.836L115.18 37.2773L122.836 48ZM135.238 48C133.949 48 132.738 47.7591 131.605 47.2773C130.473 46.7826 129.477 46.112 128.617 45.2656C127.771 44.4062 127.1 43.4102 126.605 42.2773C126.124 41.1445 125.883 39.9336 125.883 38.6445V32.4336H123.285V27.1211H125.883V18.7617H131.195V27.1211H139.281V32.4336H131.195V38.6445C131.195 39.2044 131.299 39.7318 131.508 40.2266C131.716 40.7083 132.003 41.1315 132.367 41.4961C132.732 41.8607 133.161 42.1536 133.656 42.375C134.151 42.5833 134.678 42.6875 135.238 42.6875H139.281V48H135.238ZM147.621 48H142.289V27.082H143.578L145.336 29.5625C146.195 28.7812 147.172 28.1823 148.266 27.7656C149.359 27.3359 150.492 27.1211 151.664 27.1211H156.371V32.4336H151.664C151.104 32.4336 150.577 32.5378 150.082 32.7461C149.587 32.9544 149.158 33.2409 148.793 33.6055C148.428 33.9701 148.142 34.3997 147.934 34.8945C147.725 35.3893 147.621 35.9167 147.621 36.4766V48ZM178.676 37.3555C178.676 38.918 178.396 40.3763 177.836 41.7305C177.276 43.0716 176.514 44.237 175.551 45.2266C174.587 46.2031 173.454 46.9779 172.152 47.5508C170.863 48.1107 169.477 48.3906 167.992 48.3906C166.521 48.3906 165.134 48.1107 163.832 47.5508C162.543 46.9779 161.41 46.2031 160.434 45.2266C159.47 44.237 158.708 43.0716 158.148 41.7305C157.589 40.3763 157.309 38.918 157.309 37.3555C157.309 35.7669 157.589 34.2956 158.148 32.9414C158.708 31.5872 159.47 30.4219 160.434 29.4453C161.41 28.4557 162.543 27.681 163.832 27.1211C165.134 26.5612 166.521 26.2812 167.992 26.2812C169.477 26.2812 170.863 26.5482 172.152 27.082C173.454 27.6029 174.587 28.3516 175.551 29.3281C176.514 30.2917 177.276 31.457 177.836 32.8242C178.396 34.1784 178.676 35.6888 178.676 37.3555ZM173.305 37.3555C173.305 36.4961 173.161 35.7214 172.875 35.0312C172.602 34.3281 172.224 33.7292 171.742 33.2344C171.26 32.7266 170.694 32.3424 170.043 32.082C169.405 31.8086 168.721 31.6719 167.992 31.6719C167.263 31.6719 166.573 31.8086 165.922 32.082C165.284 32.3424 164.724 32.7266 164.242 33.2344C163.773 33.7292 163.402 34.3281 163.129 35.0312C162.855 35.7214 162.719 36.4961 162.719 37.3555C162.719 38.1628 162.855 38.9115 163.129 39.6016C163.402 40.2917 163.773 40.8906 164.242 41.3984C164.724 41.9062 165.284 42.3099 165.922 42.6094C166.573 42.8958 167.263 43.0391 167.992 43.0391C168.721 43.0391 169.405 42.9023 170.043 42.6289C170.694 42.3555 171.26 41.9714 171.742 41.4766C172.224 40.9818 172.602 40.3828 172.875 39.6797C173.161 38.9766 173.305 38.2018 173.305 37.3555Z" fill="#001A52"/>
</svg>
