<svg width="206" height="51" viewBox="0 0 206 51" fill="none" xmlns="http://www.w3.org/2000/svg">
<path d="M0 0L29.2086 4.17266L12.518 45.8992H0V0Z" fill="#0F084B"/>
<path d="M10.4316 14.6043L29.2086 4.17261V50.0718H16.6906L10.4316 14.6043Z" fill="#65AFFF"/>
<path d="M51.4879 44.5359H43.7804V6.02521H51.4879V44.5359ZM65.2111 44.5359H57.8795V15.7737H59.652L62.069 18.5667C63.2506 17.4925 64.5844 16.6689 66.0704 16.096C67.5743 15.5052 69.1409 15.2098 70.7701 15.2098C72.5247 15.2098 74.1808 15.5499 75.7384 16.2303C77.296 16.8927 78.6567 17.8148 79.8204 18.9964C80.9842 20.1601 81.8973 21.5298 82.5597 23.1053C83.24 24.6629 83.5802 26.3279 83.5802 28.1004V44.5359H76.2487V28.1004C76.2487 27.3484 76.1054 26.6413 75.819 25.9788C75.5325 25.2985 75.1386 24.7077 74.6373 24.2064C74.136 23.7051 73.5542 23.3112 72.8917 23.0247C72.2293 22.7383 71.5221 22.595 70.7701 22.595C70.0003 22.595 69.2752 22.7383 68.5948 23.0247C67.9145 23.3112 67.3237 23.7051 66.8224 24.2064C66.3211 24.7077 65.9272 25.2985 65.6407 25.9788C65.3543 26.6413 65.2111 27.3484 65.2111 28.1004V44.5359ZM95.7994 44.5359L84.8424 15.7737H93.1945L99.4786 33.7132L105.736 15.7737H114.115L103.158 44.5359H95.7994ZM127.489 37.4998C127.775 37.5893 128.062 37.652 128.348 37.6878C128.635 37.7057 128.921 37.7147 129.208 37.7147C129.924 37.7147 130.613 37.6162 131.276 37.4193C131.938 37.2223 132.556 36.9448 133.129 36.5867C133.719 36.2108 134.239 35.7632 134.686 35.244C135.152 34.7068 135.528 34.116 135.814 33.4715L141.185 38.8694C140.505 39.8362 139.717 40.7046 138.822 41.4744C137.945 42.2443 136.987 42.8978 135.948 43.4349C134.928 43.972 133.845 44.3748 132.699 44.6434C131.571 44.9298 130.407 45.0731 129.208 45.0731C127.185 45.0731 125.278 44.6971 123.487 43.9451C121.715 43.1932 120.157 42.1458 118.815 40.803C117.49 39.4603 116.442 37.8668 115.672 36.0228C114.903 34.1608 114.518 32.1198 114.518 29.8997C114.518 27.626 114.903 25.5491 115.672 23.6693C116.442 21.7894 117.49 20.187 118.815 18.8621C120.157 17.5373 121.715 16.5078 123.487 15.7737C125.278 15.0397 127.185 14.6727 129.208 14.6727C130.407 14.6727 131.58 14.8159 132.726 15.1024C133.872 15.3888 134.955 15.8006 135.975 16.3377C137.014 16.8748 137.98 17.5373 138.876 18.325C139.771 19.0949 140.559 19.9632 141.239 20.93L127.489 37.4998ZM131.249 22.3802C130.908 22.2549 130.568 22.1743 130.228 22.1385C129.906 22.1027 129.566 22.0848 129.208 22.0848C128.205 22.0848 127.256 22.2728 126.361 22.6487C125.484 23.0068 124.714 23.526 124.051 24.2064C123.407 24.8867 122.897 25.7103 122.521 26.6771C122.145 27.626 121.957 28.7002 121.957 29.8997C121.957 30.1683 121.966 30.4726 121.984 30.8128C122.019 31.153 122.064 31.5021 122.118 31.8602C122.189 32.2003 122.27 32.5316 122.359 32.8538C122.449 33.1761 122.565 33.4625 122.709 33.7132L131.249 22.3802ZM152.276 44.5359H144.945V15.7737H146.717L149.134 18.5667C150.316 17.4925 151.65 16.6689 153.136 16.096C154.64 15.5052 156.206 15.2098 157.836 15.2098C159.59 15.2098 161.246 15.5499 162.804 16.2303C164.361 16.8927 165.722 17.8148 166.886 18.9964C168.05 20.1601 168.963 21.5298 169.625 23.1053C170.305 24.6629 170.646 26.3279 170.646 28.1004V44.5359H163.314V28.1004C163.314 27.3484 163.171 26.6413 162.884 25.9788C162.598 25.2985 162.204 24.7077 161.703 24.2064C161.201 23.7051 160.62 23.3112 159.957 23.0247C159.295 22.7383 158.588 22.595 157.836 22.595C157.066 22.595 156.341 22.7383 155.66 23.0247C154.98 23.3112 154.389 23.7051 153.888 24.2064C153.387 24.7077 152.993 25.2985 152.706 25.9788C152.42 26.6413 152.276 27.3484 152.276 28.1004V44.5359ZM203.678 29.8997C203.678 32.0482 203.293 34.0534 202.523 35.9153C201.753 37.7594 200.706 39.3618 199.381 40.7225C198.056 42.0652 196.498 43.1305 194.708 43.9183C192.936 44.6881 191.029 45.0731 188.988 45.0731C186.965 45.0731 185.058 44.6881 183.268 43.9183C181.495 43.1305 179.938 42.0652 178.595 40.7225C177.27 39.3618 176.223 37.7594 175.453 35.9153C174.683 34.0534 174.298 32.0482 174.298 29.8997C174.298 27.7155 174.683 25.6924 175.453 23.8304C176.223 21.9684 177.27 20.366 178.595 19.0233C179.938 17.6626 181.495 16.5973 183.268 15.8275C185.058 15.0576 186.965 14.6727 188.988 14.6727C191.029 14.6727 192.936 15.0397 194.708 15.7737C196.498 16.4899 198.056 17.5193 199.381 18.8621C200.706 20.187 201.753 21.7894 202.523 23.6693C203.293 25.5312 203.678 27.6081 203.678 29.8997ZM196.293 29.8997C196.293 28.7181 196.096 27.6528 195.702 26.7039C195.326 25.7371 194.807 24.9136 194.144 24.2332C193.482 23.535 192.703 23.0068 191.808 22.6487C190.93 22.2728 189.991 22.0848 188.988 22.0848C187.985 22.0848 187.036 22.2728 186.141 22.6487C185.264 23.0068 184.494 23.535 183.832 24.2332C183.187 24.9136 182.677 25.7371 182.301 26.7039C181.925 27.6528 181.737 28.7181 181.737 29.8997C181.737 31.0097 181.925 32.0392 182.301 32.9881C182.677 33.937 183.187 34.7606 183.832 35.4588C184.494 36.157 185.264 36.7121 186.141 37.1238C187.036 37.5177 187.985 37.7147 188.988 37.7147C189.991 37.7147 190.93 37.5267 191.808 37.1507C192.703 36.7747 193.482 36.2466 194.144 35.5662C194.807 34.8859 195.326 34.0623 195.702 33.0955C196.096 32.1287 196.293 31.0635 196.293 29.8997Z" fill="#0F084B"/>
</svg>
